<svg width="10" height="14" viewBox="0 0 10 14" fill="none" xmlns="http://www.w3.org/2000/svg">
<path fill-rule="evenodd" clip-rule="evenodd" d="M6.49561 1.78849C6.69088 1.59323 6.69088 1.27665 6.49561 1.08138C6.30035 0.886121 5.98377 0.886121 5.78851 1.08138L3.63675 3.23314C3.24622 3.62367 3.24622 4.25683 3.63675 4.64736L5.78851 6.79912C5.98377 6.99438 6.30035 6.99438 6.49561 6.79912C6.69088 6.60385 6.69088 6.28727 6.49561 6.09201L4.84391 4.44031H5.00031C7.10577 4.44031 8.81259 6.14713 8.81259 8.25259C8.81259 10.3581 7.10577 12.0649 5.00031 12.0649C2.89484 12.0649 1.18802 10.3581 1.18802 8.25259C1.18802 7.97645 0.964161 7.75259 0.688019 7.75259C0.411876 7.75259 0.188019 7.97645 0.188019 8.25259C0.188019 10.9103 2.34255 13.0649 5.00031 13.0649C7.65806 13.0649 9.81259 10.9103 9.81259 8.25259C9.81259 5.59484 7.65806 3.44031 5.00031 3.44031H4.8438L6.49561 1.78849Z" fill="white"/>
</svg>
