<svg width="8" height="8" viewBox="0 0 8 8" fill="none" xmlns="http://www.w3.org/2000/svg">
<path fill-rule="evenodd" clip-rule="evenodd" d="M0.499908 0.500244C0.223766 0.500244 -9.15527e-05 0.724102 -9.15527e-05 1.00024C-9.15527e-05 1.27639 0.223766 1.50024 0.499908 1.50024H7.49991C7.77605 1.50024 7.99991 1.27639 7.99991 1.00024C7.99991 0.724102 7.77605 0.500244 7.49991 0.500244H0.499908ZM0 4.00024C0 3.7241 0.223858 3.50024 0.5 3.50024H7.5C7.77614 3.50024 8 3.7241 8 4.00024C8 4.27639 7.77614 4.50024 7.5 4.50024H0.5C0.223858 4.50024 0 4.27639 0 4.00024ZM-9.15527e-05 7.00024C-9.15527e-05 6.7241 0.223766 6.50024 0.499908 6.50024H7.49991C7.77605 6.50024 7.99991 6.7241 7.99991 7.00024C7.99991 7.27639 7.77605 7.50024 7.49991 7.50024H0.499908C0.223766 7.50024 -9.15527e-05 7.27639 -9.15527e-05 7.00024Z" fill="white"/>
</svg>
