<svg width="10" height="10" viewBox="0 0 10 10" fill="none" xmlns="http://www.w3.org/2000/svg">
<path fill-rule="evenodd" clip-rule="evenodd" d="M0.146355 0.8538C-0.0489071 0.658537 -0.0489071 0.341954 0.146355 0.146691C0.341618 -0.0485716 0.658201 -0.0485716 0.853464 0.146691L4.99992 4.29315L9.14637 0.146691C9.34163 -0.0485716 9.65821 -0.0485716 9.85348 0.146691C10.0487 0.341954 10.0487 0.658537 9.85348 0.8538L5.70703 5.00026L9.85348 9.14672C10.0487 9.34198 10.0487 9.65856 9.85348 9.85383C9.65821 10.0491 9.34163 10.0491 9.14637 9.85383L4.99992 5.70737L0.853463 9.85383C0.658201 10.0491 0.341618 10.0491 0.146356 9.85383C-0.0489069 9.65856 -0.0489069 9.34198 0.146356 9.14672L4.29281 5.00026L0.146355 0.8538Z" fill="white"/>
</svg>
