<svg width="18" height="12" viewBox="0 0 18 12" fill="none" xmlns="http://www.w3.org/2000/svg">
<path fill-rule="evenodd" clip-rule="evenodd" d="M7.58612 5.44012C8.28073 5.93509 9.2128 5.93509 9.90741 5.44012L15.9464 1.13681C16.3428 0.854361 16.1429 0.229614 15.6562 0.229614H1.8373C1.3506 0.229614 1.15077 0.854361 1.54714 1.13681L7.58612 5.44012ZM1.06421 2.1269C0.733219 1.89104 0.274048 2.12767 0.274048 2.5341V10.7711C0.274048 11.3233 0.721764 11.7711 1.27405 11.7711H16.2195C16.7718 11.7711 17.2195 11.3233 17.2195 10.7711V2.5341C17.2195 2.12767 16.7603 1.89104 16.4293 2.12691L9.90741 6.77435C9.2128 7.26932 8.28073 7.26932 7.58612 6.77435L1.06421 2.1269Z" fill="white"/>
</svg>
