<svg width="18" height="18" viewBox="0 0 18 18" fill="none" xmlns="http://www.w3.org/2000/svg">
<path fill-rule="evenodd" clip-rule="evenodd" d="M12.6934 8C12.6934 10.5922 10.592 12.6936 7.99982 12.6936C5.40761 12.6936 3.30621 10.5922 3.30621 8C3.30621 5.40779 5.40761 3.3064 7.99982 3.3064C10.592 3.3064 12.6934 5.40779 12.6934 8ZM12.2755 14.3971C11.0527 15.216 9.58204 15.6936 7.99982 15.6936C3.75076 15.6936 0.306213 12.2491 0.306213 8C0.306213 3.75094 3.75076 0.306396 7.99982 0.306396C12.2489 0.306396 15.6934 3.75094 15.6934 8C15.6934 9.58225 15.2158 11.0529 14.3968 12.2758L16.7309 14.6097C17.3295 15.2083 17.3399 16.1685 16.7541 16.7543C16.1683 17.34 15.2082 17.3297 14.6096 16.7311L12.2755 14.3971Z" fill="white"/>
</svg>
