<svg width="14" height="14" viewBox="0 0 14 14" fill="none" xmlns="http://www.w3.org/2000/svg">
<path d="M0.810825 5.60435C2.41353 9.09501 5.26534 11.8703 8.81091 13.3748L9.37926 13.6281C10.6796 14.2074 12.2081 13.7673 13.0012 12.5851L13.7439 11.4781C13.9854 11.1182 13.9119 10.6334 13.5746 10.3613L11.0557 8.3292C10.6858 8.03073 10.1417 8.10025 9.85871 8.48216L9.0795 9.53362C7.08004 8.54733 5.45672 6.92401 4.47043 4.92455L5.52188 4.14534C5.90379 3.86232 5.97331 3.31829 5.67484 2.94832L3.64272 0.429405C3.37063 0.0921376 2.88598 0.0185699 2.52607 0.259902L1.4114 1.00731C0.221879 1.8049 -0.215829 3.34609 0.37689 4.64986L0.810172 5.60293L0.810825 5.60435Z" fill="white"/>
</svg>
