<svg width="10" height="10" viewBox="0 0 10 10" fill="none" xmlns="http://www.w3.org/2000/svg">
<path fill-rule="evenodd" clip-rule="evenodd" d="M2.07349 7.03054H1.6878C0.755706 7.03054 9.15527e-05 6.27492 9.15527e-05 5.34283V4.65719C9.15527e-05 3.7251 0.755706 2.96948 1.6878 2.96948H2.07349L4.25671 0.327347C4.50864 0.0224633 5.00389 0.200606 5.00389 0.596108V9.40391C5.00389 9.79941 4.50864 9.97755 4.25671 9.67267L2.07349 7.03054ZM6.45385 3.32125C6.73005 3.17864 7.06957 3.28694 7.21218 3.56314C7.44242 4.00906 7.57125 4.49264 7.57125 4.99995C7.57125 5.50738 7.44236 5.99107 7.21201 6.43707C7.06937 6.71326 6.72984 6.82153 6.45366 6.67888C6.17747 6.53624 6.0692 6.19672 6.21184 5.92053C6.36728 5.61955 6.44557 5.31184 6.44557 4.99995C6.44557 4.68813 6.36732 4.38049 6.21196 4.07958C6.06934 3.80338 6.17764 3.46386 6.45385 3.32125ZM9.21651 1.87462C9.07389 1.59841 8.73438 1.49012 8.45817 1.63273C8.18197 1.77534 8.07367 2.11486 8.21628 2.39106C8.64784 3.22688 8.87441 4.10123 8.87441 4.99975C8.87441 5.89849 8.64773 6.77305 8.21597 7.60905C8.07333 7.88524 8.18159 8.22477 8.45778 8.36741C8.73397 8.51005 9.0735 8.40178 9.21614 8.12559C9.7228 7.14456 10.0001 6.09403 10.0001 4.99975C10.0001 3.90574 9.72293 2.85545 9.21651 1.87462Z" fill="white"/>
</svg>
